Source-HROTn_VROTd_SLENn_SANGx.ufo
<glyph name="ampersand" format="2">
  <advance width="467"/>
  <unicode hex="0026"/>
  <outline>
    <contour>
      <point x="119" y="352" type="line"/>
      <point x="290" y="354" type="line" smooth="yes"/>
      <point x="290" y="354"/>
      <point x="290" y="354"/>
      <point x="290" y="354" type="curve" smooth="yes"/>
      <point x="348" y="354" type="line"/>
      <point x="348" y="354"/>
      <point x="348" y="354"/>
      <point x="348" y="354" type="curve"/>
      <point x="399" y="354" type="line"/>
      <point x="399" y="338" type="line"/>
      <point x="348" y="338" type="line"/>
      <point x="348" y="338"/>
      <point x="348" y="338"/>
      <point x="348" y="338" type="curve"/>
      <point x="290" y="338" type="line" smooth="yes"/>
      <point x="290" y="338"/>
      <point x="290" y="338"/>
      <point x="290" y="338" type="curve" smooth="yes"/>
      <point x="119" y="336" type="line"/>
    </contour>
    <contour>
      <point x="300" y="610" type="line"/>
      <point x="281" y="618"/>
      <point x="260" y="622"/>
      <point x="242" y="622" type="curve"/>
      <point x="242" y="622"/>
      <point x="242" y="622"/>
      <point x="242" y="622" type="curve"/>
      <point x="171" y="622"/>
      <point x="116" y="579"/>
      <point x="116" y="492" type="curve"/>
      <point x="116" y="492"/>
      <point x="116" y="492"/>
      <point x="116" y="492" type="curve"/>
      <point x="116" y="406"/>
      <point x="174" y="354"/>
      <point x="298" y="354" type="curve" smooth="yes"/>
      <point x="309" y="354"/>
      <point x="309" y="338"/>
      <point x="298" y="338" type="curve" smooth="yes"/>
      <point x="174" y="338"/>
      <point x="103" y="289"/>
      <point x="103" y="188" type="curve"/>
      <point x="103" y="188"/>
      <point x="103" y="188"/>
      <point x="103" y="188" type="curve"/>
      <point x="103" y="107"/>
      <point x="149" y="54"/>
      <point x="218" y="54" type="curve"/>
      <point x="218" y="54"/>
      <point x="218" y="54"/>
      <point x="218" y="54" type="curve"/>
      <point x="291" y="54"/>
      <point x="340" y="109"/>
      <point x="340" y="203" type="curve"/>
      <point x="340" y="203"/>
      <point x="340" y="203"/>
      <point x="340" y="203" type="curve"/>
      <point x="340" y="346" type="line"/>
      <point x="340" y="346"/>
      <point x="340" y="346"/>
      <point x="340" y="346" type="curve"/>
      <point x="340" y="432" type="line"/>
      <point x="356" y="432" type="line"/>
      <point x="356" y="346" type="line"/>
      <point x="356" y="346"/>
      <point x="356" y="346"/>
      <point x="356" y="346" type="curve"/>
      <point x="356" y="203" type="line"/>
      <point x="356" y="203"/>
      <point x="356" y="203"/>
      <point x="356" y="203" type="curve"/>
      <point x="356" y="99"/>
      <point x="299" y="38"/>
      <point x="218" y="38" type="curve"/>
      <point x="218" y="38"/>
      <point x="218" y="38"/>
      <point x="218" y="38" type="curve"/>
      <point x="141" y="38"/>
      <point x="87" y="97"/>
      <point x="87" y="188" type="curve"/>
      <point x="87" y="188"/>
      <point x="87" y="188"/>
      <point x="87" y="188" type="curve"/>
      <point x="87" y="297"/>
      <point x="164" y="354"/>
      <point x="298" y="354" type="curve" smooth="yes"/>
      <point x="309" y="354"/>
      <point x="309" y="338"/>
      <point x="298" y="338" type="curve" smooth="yes"/>
      <point x="164" y="338"/>
      <point x="100" y="398"/>
      <point x="100" y="492" type="curve"/>
      <point x="100" y="492"/>
      <point x="100" y="492"/>
      <point x="100" y="492" type="curve"/>
      <point x="100" y="589"/>
      <point x="163" y="638"/>
      <point x="242" y="638" type="curve"/>
      <point x="242" y="638"/>
      <point x="242" y="638"/>
      <point x="242" y="638" type="curve"/>
      <point x="262" y="638"/>
      <point x="285" y="634"/>
      <point x="306" y="624" type="curve"/>
    </contour>
    <contour>
      <point x="353" y="669" type="line"/>
      <point x="309" y="612" type="line" smooth="yes"/>
      <point x="308" y="610"/>
      <point x="309" y="623"/>
      <point x="310" y="620" type="curve" smooth="yes"/>
      <point x="354" y="514" type="line"/>
      <point x="340" y="508" type="line"/>
      <point x="296" y="614" type="line" smooth="yes"/>
      <point x="295" y="617"/>
      <point x="295" y="620"/>
      <point x="297" y="622" type="curve" smooth="yes"/>
      <point x="341" y="679" type="line"/>
    </contour>
    <contour>
      <point x="303" y="499" type="line"/>
      <point x="354" y="437" type="line" smooth="yes"/>
      <point x="357" y="433"/>
      <point x="339" y="433"/>
      <point x="342" y="437" type="curve" smooth="yes"/>
      <point x="393" y="499" type="line"/>
      <point x="405" y="489" type="line"/>
      <point x="354" y="427" type="line" smooth="yes"/>
      <point x="351" y="423"/>
      <point x="345" y="423"/>
      <point x="342" y="427" type="curve" smooth="yes"/>
      <point x="291" y="489" type="line"/>
    </contour>
    <contour>
      <point x="449" y="401" type="line"/>
      <point x="406" y="341" type="line" smooth="yes"/>
      <point x="403" y="339"/>
      <point x="403" y="354"/>
      <point x="405" y="351" type="curve" smooth="yes"/>
      <point x="448" y="293" type="line"/>
      <point x="436" y="283" type="line"/>
      <point x="393" y="341" type="line" smooth="yes"/>
      <point x="391" y="344"/>
      <point x="390" y="348"/>
      <point x="392" y="351" type="curve" smooth="yes"/>
      <point x="435" y="411" type="line"/>
    </contour>
    <contour>
      <point x="303" y="411" type="line"/>
      <point x="354" y="351" type="line" smooth="yes"/>
      <point x="354" y="351"/>
      <point x="354" y="351"/>
      <point x="354" y="351" type="curve" smooth="yes"/>
      <point x="405" y="293" type="line"/>
      <point x="393" y="283" type="line"/>
      <point x="342" y="341" type="line" smooth="yes"/>
      <point x="342" y="341"/>
      <point x="342" y="341"/>
      <point x="342" y="341" type="curve" smooth="yes"/>
      <point x="291" y="401" type="line"/>
    </contour>
    <contour>
      <point x="405" y="401" type="line"/>
      <point x="354" y="341" type="line" smooth="yes"/>
      <point x="354" y="341"/>
      <point x="354" y="341"/>
      <point x="354" y="341" type="curve" smooth="yes"/>
      <point x="303" y="283" type="line"/>
      <point x="291" y="293" type="line"/>
      <point x="342" y="351" type="line" smooth="yes"/>
      <point x="342" y="351"/>
      <point x="342" y="351"/>
      <point x="342" y="351" type="curve" smooth="yes"/>
      <point x="393" y="411" type="line"/>
    </contour>
  </outline>
</glyph>
<glyph name="one" format="2">
  <advance width="278"/>
  <unicode hex="0031"/>
  <outline>
    <contour>
      <point x="234" y="688" type="line"/>
      <point x="176" y="608" type="line" smooth="yes"/>
      <point x="176" y="608"/>
      <point x="177" y="608"/>
      <point x="177" y="608" type="curve" smooth="yes"/>
      <point x="120" y="527" type="line"/>
      <point x="106" y="537" type="line"/>
      <point x="163" y="618" type="line" smooth="yes"/>
      <point x="163" y="618"/>
      <point x="164" y="618"/>
      <point x="164" y="618" type="curve" smooth="yes"/>
      <point x="222" y="698" type="line"/>
    </contour>
    <contour>
      <point x="230" y="-6" type="line"/>
      <point x="159" y="56" type="line" smooth="yes"/>
      <point x="156" y="59"/>
      <point x="172" y="58"/>
      <point x="169" y="56" type="curve" smooth="yes"/>
      <point x="94" y="-6" type="line"/>
      <point x="84" y="6" type="line"/>
      <point x="159" y="68" type="line" smooth="yes"/>
      <point x="162" y="71"/>
      <point x="166" y="71"/>
      <point x="169" y="68" type="curve" smooth="yes"/>
      <point x="240" y="6" type="line"/>
    </contour>
    <contour>
      <point x="61" y="581" type="line"/>
      <point x="92" y="595"/>
      <point x="135" y="612"/>
      <point x="168" y="621" type="curve" smooth="yes"/>
      <point x="173" y="622"/>
      <point x="178" y="618"/>
      <point x="178" y="613" type="curve" smooth="yes"/>
      <point x="175" y="563"/>
      <point x="174" y="506"/>
      <point x="174" y="349" type="curve" smooth="yes"/>
      <point x="174" y="349"/>
      <point x="174" y="349"/>
      <point x="174" y="349" type="curve" smooth="yes"/>
      <point x="172" y="62" type="line"/>
      <point x="156" y="62" type="line"/>
      <point x="158" y="349" type="line" smooth="yes"/>
      <point x="158" y="349"/>
      <point x="158" y="349"/>
      <point x="158" y="349" type="curve" smooth="yes"/>
      <point x="158" y="506"/>
      <point x="159" y="563"/>
      <point x="162" y="613" type="curve" smooth="yes"/>
      <point x="162" y="619"/>
      <point x="177" y="607"/>
      <point x="172" y="605" type="curve" smooth="yes"/>
      <point x="141" y="596"/>
      <point x="98" y="581"/>
      <point x="67" y="567" type="curve"/>
    </contour>
    <contour>
      <point x="13" y="471" type="line"/>
      <point x="57" y="577" type="line" smooth="yes"/>
      <point x="58" y="580"/>
      <point x="59" y="567"/>
      <point x="58" y="569" type="curve" smooth="yes"/>
      <point x="14" y="625" type="line"/>
      <point x="26" y="635" type="line"/>
      <point x="70" y="579" type="line" smooth="yes"/>
      <point x="72" y="577"/>
      <point x="72" y="574"/>
      <point x="71" y="571" type="curve" smooth="yes"/>
      <point x="27" y="465" type="line"/>
    </contour>
  </outline>
</glyph>
<glyph name="five" format="2">
  <advance width="373"/>
  <unicode hex="0035"/>
  <outline>
    <contour>
      <point x="83" y="75" type="line"/>
      <point x="106" y="63"/>
      <point x="130" y="56"/>
      <point x="153" y="56" type="curve"/>
      <point x="153" y="56"/>
      <point x="153" y="56"/>
      <point x="153" y="56" type="curve"/>
      <point x="230" y="56"/>
      <point x="282" y="115"/>
      <point x="282" y="214" type="curve"/>
      <point x="282" y="214"/>
      <point x="282" y="214"/>
      <point x="282" y="214" type="curve"/>
      <point x="282" y="318"/>
      <point x="224" y="378"/>
      <point x="96" y="353" type="curve" smooth="yes"/>
      <point x="90" y="352"/>
      <point x="86" y="356"/>
      <point x="86" y="362" type="curve" smooth="yes"/>
      <point x="102" y="617" type="line" smooth="yes"/>
      <point x="102" y="621"/>
      <point x="106" y="624"/>
      <point x="110" y="624" type="curve" smooth="yes"/>
      <point x="274" y="623" type="line"/>
      <point x="274" y="607" type="line"/>
      <point x="110" y="608" type="line" smooth="yes"/>
      <point x="106" y="608"/>
      <point x="118" y="620"/>
      <point x="118" y="615" type="curve" smooth="yes"/>
      <point x="102" y="360" type="line" smooth="yes"/>
      <point x="102" y="355"/>
      <point x="87" y="368"/>
      <point x="92" y="369" type="curve" smooth="yes"/>
      <point x="232" y="396"/>
      <point x="298" y="326"/>
      <point x="298" y="214" type="curve"/>
      <point x="298" y="214"/>
      <point x="298" y="214"/>
      <point x="298" y="214" type="curve"/>
      <point x="298" y="105"/>
      <point x="238" y="40"/>
      <point x="153" y="40" type="curve"/>
      <point x="153" y="40"/>
      <point x="153" y="40"/>
      <point x="153" y="40" type="curve"/>
      <point x="128" y="40"/>
      <point x="102" y="47"/>
      <point x="75" y="61" type="curve"/>
    </contour>
    <contour>
      <point x="325" y="676" type="line"/>
      <point x="281" y="611" type="line" smooth="yes"/>
      <point x="279" y="608"/>
      <point x="280" y="621"/>
      <point x="281" y="618" type="curve" smooth="yes"/>
      <point x="325" y="527" type="line"/>
      <point x="311" y="521" type="line"/>
      <point x="267" y="612" type="line" smooth="yes"/>
      <point x="266" y="614"/>
      <point x="266" y="617"/>
      <point x="267" y="619" type="curve" smooth="yes"/>
      <point x="311" y="684" type="line"/>
    </contour>
    <contour>
      <point x="30" y="19" type="line"/>
      <point x="73" y="73" type="line" smooth="yes"/>
      <point x="75" y="75"/>
      <point x="73" y="62"/>
      <point x="72" y="65" type="curve" smooth="yes"/>
      <point x="29" y="174" type="line"/>
      <point x="43" y="180" type="line"/>
      <point x="86" y="71" type="line" smooth="yes"/>
      <point x="87" y="68"/>
      <point x="87" y="65"/>
      <point x="85" y="63" type="curve" smooth="yes"/>
      <point x="42" y="9" type="line"/>
    </contour>
    <contour>
      <point x="37" y="295" type="line"/>
      <point x="88" y="366" type="line" smooth="yes"/>
      <point x="88" y="366"/>
      <point x="88" y="366"/>
      <point x="88" y="366" type="curve" smooth="yes"/>
      <point x="138" y="432" type="line"/>
      <point x="150" y="422" type="line"/>
      <point x="100" y="356" type="line" smooth="yes"/>
      <point x="100" y="356"/>
      <point x="101" y="356"/>
      <point x="100" y="356" type="curve" smooth="yes"/>
      <point x="49" y="285" type="line"/>
    </contour>
    <contour>
      <point x="146" y="548" type="line"/>
      <point x="103" y="612" type="line" smooth="yes"/>
      <point x="103" y="612"/>
      <point x="103" y="612"/>
      <point x="103" y="612" type="curve" smooth="yes"/>
      <point x="61" y="676" type="line"/>
      <point x="75" y="684" type="line"/>
      <point x="117" y="620" type="line" smooth="yes"/>
      <point x="117" y="620"/>
      <point x="117" y="620"/>
      <point x="117" y="620" type="curve" smooth="yes"/>
      <point x="160" y="556" type="line"/>
    </contour>
  </outline>
</glyph>
<glyph name="seven" format="2">
  <advance width="355"/>
  <unicode hex="0037"/>
  <outline>
    <contour>
      <point x="132" y="72" type="line"/>
      <point x="144" y="122"/>
      <point x="164" y="201"/>
      <point x="205" y="351" type="curve" smooth="yes"/>
      <point x="205" y="351"/>
      <point x="205" y="351"/>
      <point x="205" y="351" type="curve" smooth="yes"/>
      <point x="231" y="444"/>
      <point x="255" y="534"/>
      <point x="279" y="619" type="curve" smooth="yes"/>
      <point x="281" y="624"/>
      <point x="292" y="609"/>
      <point x="287" y="609" type="curve" smooth="yes"/>
      <point x="145" y="609"/>
      <point x="102" y="607"/>
      <point x="69" y="603" type="curve"/>
      <point x="67" y="619" type="line"/>
      <point x="100" y="623"/>
      <point x="144" y="625"/>
      <point x="287" y="625" type="curve" smooth="yes"/>
      <point x="292" y="625"/>
      <point x="296" y="620"/>
      <point x="295" y="615" type="curve" smooth="yes"/>
      <point x="269" y="522"/>
      <point x="245" y="432"/>
      <point x="221" y="347" type="curve" smooth="yes"/>
      <point x="221" y="347"/>
      <point x="221" y="347"/>
      <point x="221" y="347" type="curve" smooth="yes"/>
      <point x="180" y="197"/>
      <point x="160" y="118"/>
      <point x="148" y="68" type="curve"/>
    </contour>
    <contour>
      <point x="195" y="-5" type="line"/>
      <point x="134" y="65" type="line" smooth="yes"/>
      <point x="131" y="68"/>
      <point x="148" y="66"/>
      <point x="145" y="64" type="curve" smooth="yes"/>
      <point x="55" y="-6" type="line"/>
      <point x="45" y="6" type="line"/>
      <point x="135" y="76" type="line" smooth="yes"/>
      <point x="138" y="79"/>
      <point x="143" y="78"/>
      <point x="146" y="75" type="curve" smooth="yes"/>
      <point x="207" y="5" type="line"/>
    </contour>
    <contour>
      <point x="17" y="528" type="line"/>
      <point x="61" y="615" type="line" smooth="yes"/>
      <point x="62" y="617"/>
      <point x="63" y="604"/>
      <point x="61" y="607" type="curve" smooth="yes"/>
      <point x="17" y="676" type="line"/>
      <point x="31" y="684" type="line"/>
      <point x="75" y="615" type="line" smooth="yes"/>
      <point x="76" y="613"/>
      <point x="76" y="610"/>
      <point x="75" y="607" type="curve" smooth="yes"/>
      <point x="31" y="520" type="line"/>
    </contour>
    <contour>
      <point x="214" y="560" type="line"/>
      <point x="282" y="623" type="line"/>
      <point x="282" y="623"/>
      <point x="282" y="623"/>
      <point x="282" y="623" type="curve"/>
      <point x="350" y="686" type="line"/>
      <point x="360" y="674" type="line"/>
      <point x="292" y="611" type="line"/>
      <point x="292" y="611"/>
      <point x="292" y="611"/>
      <point x="292" y="611" type="curve"/>
      <point x="224" y="548" type="line"/>
    </contour>
  </outline>
</glyph>
<glyph name="C" format="2">
  <advance width="432"/>
  <unicode hex="0043"/>
  <outline>
    <contour>
      <point x="341" y="600" type="line"/>
      <point x="318" y="612"/>
      <point x="289" y="620"/>
      <point x="265" y="620" type="curve"/>
      <point x="265" y="620"/>
      <point x="265" y="620"/>
      <point x="265" y="620" type="curve"/>
      <point x="156" y="620"/>
      <point x="88" y="506"/>
      <point x="88" y="339" type="curve"/>
      <point x="88" y="339"/>
      <point x="88" y="339"/>
      <point x="88" y="339" type="curve"/>
      <point x="88" y="172"/>
      <point x="157" y="60"/>
      <point x="265" y="60" type="curve"/>
      <point x="265" y="60"/>
      <point x="265" y="60"/>
      <point x="265" y="60" type="curve"/>
      <point x="289" y="60"/>
      <point x="320" y="67"/>
      <point x="341" y="78" type="curve"/>
      <point x="349" y="64" type="line"/>
      <point x="326" y="51"/>
      <point x="291" y="44"/>
      <point x="265" y="44" type="curve"/>
      <point x="265" y="44"/>
      <point x="265" y="44"/>
      <point x="265" y="44" type="curve"/>
      <point x="149" y="44"/>
      <point x="72" y="160"/>
      <point x="72" y="339" type="curve"/>
      <point x="72" y="339"/>
      <point x="72" y="339"/>
      <point x="72" y="339" type="curve"/>
      <point x="72" y="518"/>
      <point x="148" y="636"/>
      <point x="265" y="636" type="curve"/>
      <point x="265" y="636"/>
      <point x="265" y="636"/>
      <point x="265" y="636" type="curve"/>
      <point x="291" y="636"/>
      <point x="324" y="628"/>
      <point x="349" y="614" type="curve"/>
    </contour>
    <contour>
      <point x="395" y="653" type="line"/>
      <point x="351" y="602" type="line" smooth="yes"/>
      <point x="349" y="600"/>
      <point x="351" y="613"/>
      <point x="352" y="610" type="curve" smooth="yes"/>
      <point x="396" y="493" type="line"/>
      <point x="382" y="487" type="line"/>
      <point x="338" y="604" type="line" smooth="yes"/>
      <point x="336" y="607"/>
      <point x="337" y="610"/>
      <point x="339" y="612" type="curve" smooth="yes"/>
      <point x="383" y="663" type="line"/>
    </contour>
    <contour>
      <point x="397" y="187" type="line"/>
      <point x="353" y="68" type="line" smooth="yes"/>
      <point x="351" y="65"/>
      <point x="349" y="79"/>
      <point x="351" y="76" type="curve" smooth="yes"/>
      <point x="395" y="27" type="line"/>
      <point x="383" y="17" type="line"/>
      <point x="339" y="66" type="line" smooth="yes"/>
      <point x="337" y="68"/>
      <point x="336" y="71"/>
      <point x="337" y="74" type="curve" smooth="yes"/>
      <point x="381" y="193" type="line"/>
    </contour>
  </outline>
</glyph>
<glyph name="E" format="2">
  <advance width="389"/>
  <unicode hex="0045"/>
  <outline>
    <contour>
      <point x="292" y="603" type="line"/>
      <point x="243" y="608"/>
      <point x="159" y="612"/>
      <point x="111" y="610" type="curve" smooth="yes"/>
      <point x="107" y="610"/>
      <point x="119" y="622"/>
      <point x="119" y="618" type="curve" smooth="yes"/>
      <point x="119" y="62" type="line" smooth="yes"/>
      <point x="119" y="58"/>
      <point x="107" y="70"/>
      <point x="111" y="70" type="curve" smooth="yes"/>
      <point x="161" y="68"/>
      <point x="241" y="71"/>
      <point x="291" y="77" type="curve"/>
      <point x="293" y="61" type="line"/>
      <point x="243" y="55"/>
      <point x="161" y="52"/>
      <point x="111" y="54" type="curve" smooth="yes"/>
      <point x="106" y="54"/>
      <point x="103" y="58"/>
      <point x="103" y="62" type="curve" smooth="yes"/>
      <point x="103" y="618" type="line" smooth="yes"/>
      <point x="103" y="622"/>
      <point x="106" y="626"/>
      <point x="111" y="626" type="curve" smooth="yes"/>
      <point x="159" y="628"/>
      <point x="243" y="624"/>
      <point x="294" y="619" type="curve"/>
    </contour>
    <contour>
      <point x="274" y="342" type="line"/>
      <point x="111" y="342" type="line"/>
      <point x="111" y="358" type="line"/>
      <point x="274" y="358" type="line"/>
    </contour>
    <contour>
      <point x="170" y="120" type="line"/>
      <point x="117" y="57" type="line" smooth="yes"/>
      <point x="117" y="57"/>
      <point x="117" y="56"/>
      <point x="116" y="56" type="curve" smooth="yes"/>
      <point x="46" y="-6" type="line"/>
      <point x="36" y="6" type="line"/>
      <point x="106" y="68" type="line" smooth="yes"/>
      <point x="106" y="68"/>
      <point x="105" y="67"/>
      <point x="105" y="67" type="curve" smooth="yes"/>
      <point x="158" y="130" type="line"/>
    </contour>
    <contour>
      <point x="46" y="686" type="line"/>
      <point x="116" y="624" type="line" smooth="yes"/>
      <point x="117" y="624"/>
      <point x="117" y="623"/>
      <point x="117" y="623" type="curve" smooth="yes"/>
      <point x="170" y="560" type="line"/>
      <point x="158" y="550" type="line"/>
      <point x="105" y="613" type="line" smooth="yes"/>
      <point x="105" y="613"/>
      <point x="106" y="612"/>
      <point x="106" y="612" type="curve" smooth="yes"/>
      <point x="36" y="674" type="line"/>
    </contour>
    <contour>
      <point x="344" y="676" type="line"/>
      <point x="300" y="607" type="line" smooth="yes"/>
      <point x="298" y="604"/>
      <point x="299" y="617"/>
      <point x="300" y="615" type="curve" smooth="yes"/>
      <point x="344" y="528" type="line"/>
      <point x="330" y="520" type="line"/>
      <point x="286" y="607" type="line" smooth="yes"/>
      <point x="285" y="610"/>
      <point x="285" y="613"/>
      <point x="286" y="615" type="curve" smooth="yes"/>
      <point x="330" y="684" type="line"/>
    </contour>
    <contour>
      <point x="357" y="162" type="line"/>
      <point x="299" y="65" type="line" smooth="yes"/>
      <point x="297" y="62"/>
      <point x="297" y="76"/>
      <point x="299" y="73" type="curve" smooth="yes"/>
      <point x="343" y="4" type="line"/>
      <point x="329" y="-4" type="line"/>
      <point x="285" y="65" type="line" smooth="yes"/>
      <point x="284" y="67"/>
      <point x="284" y="71"/>
      <point x="285" y="73" type="curve" smooth="yes"/>
      <point x="343" y="170" type="line"/>
    </contour>
    <contour>
      <point x="325" y="428" type="line"/>
      <point x="281" y="346" type="line" smooth="yes"/>
      <point x="280" y="344"/>
      <point x="280" y="356"/>
      <point x="281" y="354" type="curve" smooth="yes"/>
      <point x="325" y="273" type="line"/>
      <point x="311" y="265" type="line"/>
      <point x="267" y="346" type="line" smooth="yes"/>
      <point x="266" y="349"/>
      <point x="266" y="351"/>
      <point x="267" y="354" type="curve" smooth="yes"/>
      <point x="311" y="436" type="line"/>
    </contour>
    <contour>
      <point x="167" y="405" type="line"/>
      <point x="117" y="345" type="line" smooth="yes"/>
      <point x="115" y="342"/>
      <point x="115" y="358"/>
      <point x="117" y="355" type="curve" smooth="yes"/>
      <point x="167" y="295" type="line"/>
      <point x="155" y="285" type="line"/>
      <point x="105" y="345" type="line" smooth="yes"/>
      <point x="102" y="348"/>
      <point x="102" y="352"/>
      <point x="105" y="355" type="curve" smooth="yes"/>
      <point x="155" y="415" type="line"/>
    </contour>
  </outline>
</glyph>
<glyph name="S" format="2">
  <advance width="377"/>
  <unicode hex="0053"/>
  <outline>
    <contour>
      <point x="288" y="601" type="line"/>
      <point x="262" y="613"/>
      <point x="235" y="620"/>
      <point x="209" y="620" type="curve"/>
      <point x="209" y="620"/>
      <point x="209" y="620"/>
      <point x="209" y="620" type="curve"/>
      <point x="138" y="620"/>
      <point x="96" y="570"/>
      <point x="96" y="490" type="curve"/>
      <point x="96" y="490"/>
      <point x="96" y="490"/>
      <point x="96" y="490" type="curve"/>
      <point x="96" y="415"/>
      <point x="148" y="381"/>
      <point x="199" y="347" type="curve"/>
      <point x="199" y="347"/>
      <point x="199" y="347"/>
      <point x="199" y="347" type="curve"/>
      <point x="256" y="309"/>
      <point x="311" y="272"/>
      <point x="311" y="192" type="curve"/>
      <point x="311" y="192"/>
      <point x="311" y="192"/>
      <point x="311" y="192" type="curve"/>
      <point x="311" y="97"/>
      <point x="257" y="42"/>
      <point x="175" y="42" type="curve"/>
      <point x="175" y="42"/>
      <point x="175" y="42"/>
      <point x="175" y="42" type="curve"/>
      <point x="145" y="42"/>
      <point x="110" y="49"/>
      <point x="78" y="65" type="curve"/>
      <point x="84" y="79" type="line"/>
      <point x="114" y="65"/>
      <point x="147" y="58"/>
      <point x="175" y="58" type="curve"/>
      <point x="175" y="58"/>
      <point x="175" y="58"/>
      <point x="175" y="58" type="curve"/>
      <point x="249" y="58"/>
      <point x="295" y="107"/>
      <point x="295" y="192" type="curve"/>
      <point x="295" y="192"/>
      <point x="295" y="192"/>
      <point x="295" y="192" type="curve"/>
      <point x="295" y="266"/>
      <point x="242" y="299"/>
      <point x="191" y="333" type="curve"/>
      <point x="191" y="333"/>
      <point x="191" y="333"/>
      <point x="191" y="333" type="curve"/>
      <point x="134" y="371"/>
      <point x="80" y="409"/>
      <point x="80" y="490" type="curve"/>
      <point x="80" y="490"/>
      <point x="80" y="490"/>
      <point x="80" y="490" type="curve"/>
      <point x="80" y="580"/>
      <point x="130" y="636"/>
      <point x="209" y="636" type="curve"/>
      <point x="209" y="636"/>
      <point x="209" y="636"/>
      <point x="209" y="636" type="curve"/>
      <point x="237" y="636"/>
      <point x="266" y="629"/>
      <point x="294" y="615" type="curve"/>
    </contour>
    <contour>
      <point x="341" y="659" type="line"/>
      <point x="297" y="603" type="line" smooth="yes"/>
      <point x="296" y="601"/>
      <point x="297" y="614"/>
      <point x="298" y="611" type="curve" smooth="yes"/>
      <point x="342" y="503" type="line"/>
      <point x="328" y="497" type="line"/>
      <point x="284" y="605" type="line" smooth="yes"/>
      <point x="283" y="608"/>
      <point x="283" y="611"/>
      <point x="285" y="613" type="curve" smooth="yes"/>
      <point x="329" y="669" type="line"/>
    </contour>
    <contour>
      <point x="31" y="20" type="line"/>
      <point x="75" y="77" type="line" smooth="yes"/>
      <point x="76" y="79"/>
      <point x="75" y="66"/>
      <point x="74" y="69" type="curve" smooth="yes"/>
      <point x="30" y="178" type="line"/>
      <point x="44" y="184" type="line"/>
      <point x="88" y="75" type="line" smooth="yes"/>
      <point x="89" y="72"/>
      <point x="89" y="69"/>
      <point x="87" y="67" type="curve" smooth="yes"/>
      <point x="43" y="10" type="line"/>
    </contour>
  </outline>
</glyph>
<glyph name="Z" format="2">
  <advance width="416"/>
  <unicode hex="005A"/>
  <outline>
    <contour>
      <point x="83" y="619" type="line"/>
      <point x="129" y="624"/>
      <point x="189" y="625"/>
      <point x="237" y="625" type="curve"/>
      <point x="237" y="625"/>
      <point x="237" y="625"/>
      <point x="237" y="625" type="curve"/>
      <point x="314" y="625" type="line" smooth="yes"/>
      <point x="320" y="625"/>
      <point x="323" y="619"/>
      <point x="321" y="614" type="curve" smooth="yes"/>
      <point x="109" y="60" type="line" smooth="yes"/>
      <point x="107" y="55"/>
      <point x="96" y="71"/>
      <point x="102" y="71" type="curve" smooth="yes"/>
      <point x="173" y="71" type="line"/>
      <point x="173" y="71"/>
      <point x="173" y="71"/>
      <point x="173" y="71" type="curve"/>
      <point x="221" y="71"/>
      <point x="276" y="72"/>
      <point x="323" y="78" type="curve"/>
      <point x="325" y="62" type="line"/>
      <point x="278" y="56"/>
      <point x="221" y="55"/>
      <point x="173" y="55" type="curve"/>
      <point x="173" y="55"/>
      <point x="173" y="55"/>
      <point x="173" y="55" type="curve"/>
      <point x="102" y="55" type="line" smooth="yes"/>
      <point x="96" y="55"/>
      <point x="93" y="61"/>
      <point x="95" y="66" type="curve" smooth="yes"/>
      <point x="307" y="620" type="line" smooth="yes"/>
      <point x="309" y="625"/>
      <point x="320" y="609"/>
      <point x="314" y="609" type="curve" smooth="yes"/>
      <point x="237" y="609" type="line"/>
      <point x="237" y="609"/>
      <point x="237" y="609"/>
      <point x="237" y="609" type="curve"/>
      <point x="189" y="609"/>
      <point x="131" y="608"/>
      <point x="85" y="603" type="curve"/>
    </contour>
    <contour>
      <point x="33" y="528" type="line"/>
      <point x="77" y="615" type="line" smooth="yes"/>
      <point x="78" y="617"/>
      <point x="79" y="604"/>
      <point x="77" y="607" type="curve" smooth="yes"/>
      <point x="33" y="676" type="line"/>
      <point x="47" y="684" type="line"/>
      <point x="91" y="615" type="line" smooth="yes"/>
      <point x="92" y="613"/>
      <point x="92" y="610"/>
      <point x="91" y="607" type="curve" smooth="yes"/>
      <point x="47" y="520" type="line"/>
    </contour>
    <contour>
      <point x="389" y="162" type="line"/>
      <point x="331" y="66" type="line" smooth="yes"/>
      <point x="329" y="63"/>
      <point x="329" y="77"/>
      <point x="331" y="74" type="curve" smooth="yes"/>
      <point x="375" y="4" type="line"/>
      <point x="361" y="-4" type="line"/>
      <point x="317" y="66" type="line" smooth="yes"/>
      <point x="316" y="68"/>
      <point x="316" y="72"/>
      <point x="317" y="74" type="curve" smooth="yes"/>
      <point x="375" y="170" type="line"/>
    </contour>
    <contour>
      <point x="16" y="6" type="line"/>
      <point x="97" y="69" type="line" smooth="yes"/>
      <point x="97" y="69"/>
      <point x="97" y="69"/>
      <point x="97" y="69" type="curve" smooth="yes"/>
      <point x="178" y="131" type="line"/>
      <point x="188" y="119" type="line"/>
      <point x="107" y="57" type="line" smooth="yes"/>
      <point x="107" y="57"/>
      <point x="107" y="57"/>
      <point x="107" y="57" type="curve" smooth="yes"/>
      <point x="26" y="-6" type="line"/>
    </contour>
    <contour>
      <point x="400" y="674" type="line"/>
      <point x="319" y="611" type="line"/>
      <point x="319" y="611"/>
      <point x="319" y="611"/>
      <point x="319" y="611" type="curve"/>
      <point x="238" y="548" type="line"/>
      <point x="228" y="560" type="line"/>
      <point x="309" y="623" type="line"/>
      <point x="309" y="623"/>
      <point x="309" y="623"/>
      <point x="309" y="623" type="curve"/>
      <point x="390" y="686" type="line"/>
    </contour>
  </outline>
</glyph>
<glyph name="backslash" format="2">
  <advance width="331"/>
  <unicode hex="005C"/>
  <outline>
    <contour>
      <point x="83" y="690" type="line"/>
      <point x="264" y="-11" type="line"/>
      <point x="248" y="-15" type="line"/>
      <point x="67" y="686" type="line"/>
    </contour>
    <contour>
      <point x="315" y="-81" type="line"/>
      <point x="250" y="-19" type="line" smooth="yes"/>
      <point x="247" y="-15"/>
      <point x="266" y="-12"/>
      <point x="263" y="-17" type="curve" smooth="yes"/>
      <point x="229" y="-79" type="line"/>
      <point x="215" y="-71" type="line"/>
      <point x="249" y="-9" type="line" smooth="yes"/>
      <point x="252" y="-5"/>
      <point x="258" y="-4"/>
      <point x="262" y="-7" type="curve" smooth="yes"/>
      <point x="327" y="-69" type="line"/>
    </contour>
    <contour>
      <point x="16" y="756" type="line"/>
      <point x="81" y="694" type="line" smooth="yes"/>
      <point x="84" y="690"/>
      <point x="65" y="687"/>
      <point x="68" y="692" type="curve" smooth="yes"/>
      <point x="102" y="754" type="line"/>
      <point x="116" y="746" type="line"/>
      <point x="82" y="684" type="line" smooth="yes"/>
      <point x="79" y="680"/>
      <point x="73" y="679"/>
      <point x="69" y="682" type="curve" smooth="yes"/>
      <point x="4" y="744" type="line"/>
    </contour>
  </outline>
</glyph>
<glyph name="bracketright" format="2">
  <advance width="323"/>
  <unicode hex="005D"/>
  <outline>
    <contour>
      <point x="17" y="821" type="line"/>
      <point x="59" y="772"/>
      <point x="124" y="740"/>
      <point x="194" y="734" type="curve" smooth="yes"/>
      <point x="198" y="734"/>
      <point x="201" y="730"/>
      <point x="201" y="726" type="curve" smooth="yes"/>
      <point x="201" y="-44" type="line" smooth="yes"/>
      <point x="201" y="-48"/>
      <point x="198" y="-52"/>
      <point x="194" y="-52" type="curve" smooth="yes"/>
      <point x="124" y="-58"/>
      <point x="59" y="-90"/>
      <point x="17" y="-139" type="curve"/>
      <point x="5" y="-129" type="line"/>
      <point x="49" y="-76"/>
      <point x="118" y="-42"/>
      <point x="192" y="-36" type="curve" smooth="yes"/>
      <point x="196" y="-36"/>
      <point x="185" y="-48"/>
      <point x="185" y="-44" type="curve" smooth="yes"/>
      <point x="185" y="726" type="line" smooth="yes"/>
      <point x="185" y="730"/>
      <point x="196" y="718"/>
      <point x="192" y="718" type="curve" smooth="yes"/>
      <point x="118" y="724"/>
      <point x="49" y="758"/>
      <point x="5" y="811" type="curve"/>
    </contour>
    <contour>
      <point x="257" y="-120" type="line"/>
      <point x="187" y="-50" type="line" smooth="yes"/>
      <point x="187" y="-50"/>
      <point x="187" y="-49"/>
      <point x="187" y="-49" type="curve" smooth="yes"/>
      <point x="134" y="13" type="line"/>
      <point x="146" y="23" type="line"/>
      <point x="199" y="-39" type="line" smooth="yes"/>
      <point x="199" y="-39"/>
      <point x="199" y="-38"/>
      <point x="199" y="-38" type="curve" smooth="yes"/>
      <point x="269" y="-108" type="line"/>
    </contour>
    <contour>
      <point x="134" y="669" type="line"/>
      <point x="187" y="731" type="line" smooth="yes"/>
      <point x="187" y="731"/>
      <point x="187" y="732"/>
      <point x="187" y="732" type="curve" smooth="yes"/>
      <point x="257" y="802" type="line"/>
      <point x="269" y="790" type="line"/>
      <point x="199" y="720" type="line" smooth="yes"/>
      <point x="199" y="720"/>
      <point x="199" y="721"/>
      <point x="199" y="721" type="curve" smooth="yes"/>
      <point x="146" y="659" type="line"/>
    </contour>
  </outline>
</glyph>
<glyph name="braceleft" format="2">
  <advance width="325"/>
  <unicode hex="007B"/>
  <outline>
    <contour>
      <point x="258" y="749" type="line"/>
      <point x="178" y="775"/>
      <point x="132" y="737"/>
      <point x="132" y="658" type="curve"/>
      <point x="132" y="658"/>
      <point x="132" y="658"/>
      <point x="132" y="658" type="curve"/>
      <point x="132" y="588"/>
      <point x="169" y="494"/>
      <point x="169" y="436" type="curve"/>
      <point x="169" y="436"/>
      <point x="169" y="436"/>
      <point x="169" y="436" type="curve"/>
      <point x="169" y="368"/>
      <point x="143" y="333"/>
      <point x="79" y="333" type="curve" smooth="yes"/>
      <point x="68" y="333"/>
      <point x="68" y="349"/>
      <point x="79" y="349" type="curve" smooth="yes"/>
      <point x="143" y="349"/>
      <point x="169" y="315"/>
      <point x="169" y="246" type="curve"/>
      <point x="169" y="246"/>
      <point x="169" y="246"/>
      <point x="169" y="246" type="curve"/>
      <point x="169" y="189"/>
      <point x="132" y="95"/>
      <point x="132" y="26" type="curve"/>
      <point x="132" y="26"/>
      <point x="132" y="26"/>
      <point x="132" y="26" type="curve"/>
      <point x="132" y="-55"/>
      <point x="179" y="-92"/>
      <point x="258" y="-66" type="curve"/>
      <point x="262" y="-82" type="line"/>
      <point x="173" y="-110"/>
      <point x="116" y="-65"/>
      <point x="116" y="26" type="curve"/>
      <point x="116" y="26"/>
      <point x="116" y="26"/>
      <point x="116" y="26" type="curve"/>
      <point x="116" y="97"/>
      <point x="153" y="191"/>
      <point x="153" y="246" type="curve"/>
      <point x="153" y="246"/>
      <point x="153" y="246"/>
      <point x="153" y="246" type="curve"/>
      <point x="153" y="305"/>
      <point x="135" y="333"/>
      <point x="79" y="333" type="curve" smooth="yes"/>
      <point x="68" y="333"/>
      <point x="68" y="349"/>
      <point x="79" y="349" type="curve" smooth="yes"/>
      <point x="135" y="349"/>
      <point x="153" y="378"/>
      <point x="153" y="436" type="curve"/>
      <point x="153" y="436"/>
      <point x="153" y="436"/>
      <point x="153" y="436" type="curve"/>
      <point x="153" y="492"/>
      <point x="116" y="586"/>
      <point x="116" y="658" type="curve"/>
      <point x="116" y="658"/>
      <point x="116" y="658"/>
      <point x="116" y="658" type="curve"/>
      <point x="116" y="747"/>
      <point x="172" y="793"/>
      <point x="262" y="765" type="curve"/>
    </contour>
    <contour>
      <point x="79" y="349" type="line"/>
      <point x="158" y="349" type="line"/>
      <point x="158" y="333" type="line"/>
      <point x="79" y="333" type="line"/>
    </contour>
    <contour>
      <point x="41" y="404" type="line"/>
      <point x="85" y="346" type="line" smooth="yes"/>
      <point x="88" y="343"/>
      <point x="88" y="339"/>
      <point x="85" y="336" type="curve" smooth="yes"/>
      <point x="41" y="279" type="line"/>
      <point x="29" y="289" type="line"/>
      <point x="73" y="346" type="line" smooth="yes"/>
      <point x="75" y="349"/>
      <point x="75" y="333"/>
      <point x="73" y="336" type="curve" smooth="yes"/>
      <point x="29" y="394" type="line"/>
    </contour>
    <contour>
      <point x="310" y="807" type="line"/>
      <point x="266" y="752" type="line" smooth="yes"/>
      <point x="264" y="750"/>
      <point x="266" y="763"/>
      <point x="267" y="760" type="curve" smooth="yes"/>
      <point x="311" y="669" type="line"/>
      <point x="297" y="663" type="line"/>
      <point x="253" y="754" type="line" smooth="yes"/>
      <point x="251" y="756"/>
      <point x="252" y="760"/>
      <point x="254" y="762" type="curve" smooth="yes"/>
      <point x="298" y="817" type="line"/>
    </contour>
    <contour>
      <point x="311" y="14" type="line"/>
      <point x="267" y="-77" type="line" smooth="yes"/>
      <point x="266" y="-80"/>
      <point x="264" y="-67"/>
      <point x="266" y="-69" type="curve" smooth="yes"/>
      <point x="310" y="-124" type="line"/>
      <point x="298" y="-134" type="line"/>
      <point x="254" y="-79" type="line" smooth="yes"/>
      <point x="252" y="-77"/>
      <point x="251" y="-73"/>
      <point x="253" y="-71" type="curve" smooth="yes"/>
      <point x="297" y="20" type="line"/>
    </contour>
  </outline>
</glyph>
<glyph name="braceright" format="2">
  <advance width="325"/>
  <unicode hex="007D"/>
  <outline>
    <contour>
      <point x="67" y="-64" type="line"/>
      <point x="147" y="-90"/>
      <point x="193" y="-52"/>
      <point x="193" y="27" type="curve"/>
      <point x="193" y="27"/>
      <point x="193" y="27"/>
      <point x="193" y="27" type="curve"/>
      <point x="193" y="97"/>
      <point x="156" y="191"/>
      <point x="156" y="249" type="curve"/>
      <point x="156" y="249"/>
      <point x="156" y="249"/>
      <point x="156" y="249" type="curve"/>
      <point x="156" y="317"/>
      <point x="182" y="352"/>
      <point x="246" y="352" type="curve" smooth="yes"/>
      <point x="257" y="352"/>
      <point x="257" y="336"/>
      <point x="246" y="336" type="curve" smooth="yes"/>
      <point x="182" y="336"/>
      <point x="156" y="370"/>
      <point x="156" y="439" type="curve"/>
      <point x="156" y="439"/>
      <point x="156" y="439"/>
      <point x="156" y="439" type="curve"/>
      <point x="156" y="496"/>
      <point x="193" y="590"/>
      <point x="193" y="659" type="curve"/>
      <point x="193" y="659"/>
      <point x="193" y="659"/>
      <point x="193" y="659" type="curve"/>
      <point x="193" y="740"/>
      <point x="146" y="777"/>
      <point x="67" y="751" type="curve"/>
      <point x="63" y="767" type="line"/>
      <point x="152" y="795"/>
      <point x="209" y="750"/>
      <point x="209" y="659" type="curve"/>
      <point x="209" y="659"/>
      <point x="209" y="659"/>
      <point x="209" y="659" type="curve"/>
      <point x="209" y="588"/>
      <point x="172" y="494"/>
      <point x="172" y="439" type="curve"/>
      <point x="172" y="439"/>
      <point x="172" y="439"/>
      <point x="172" y="439" type="curve"/>
      <point x="172" y="380"/>
      <point x="190" y="352"/>
      <point x="246" y="352" type="curve" smooth="yes"/>
      <point x="257" y="352"/>
      <point x="257" y="336"/>
      <point x="246" y="336" type="curve" smooth="yes"/>
      <point x="190" y="336"/>
      <point x="172" y="307"/>
      <point x="172" y="249" type="curve"/>
      <point x="172" y="249"/>
      <point x="172" y="249"/>
      <point x="172" y="249" type="curve"/>
      <point x="172" y="193"/>
      <point x="209" y="99"/>
      <point x="209" y="27" type="curve"/>
      <point x="209" y="27"/>
      <point x="209" y="27"/>
      <point x="209" y="27" type="curve"/>
      <point x="209" y="-62"/>
      <point x="153" y="-108"/>
      <point x="63" y="-80" type="curve"/>
    </contour>
    <contour>
      <point x="246" y="336" type="line"/>
      <point x="167" y="336" type="line"/>
      <point x="167" y="352" type="line"/>
      <point x="246" y="352" type="line"/>
    </contour>
    <contour>
      <point x="284" y="281" type="line"/>
      <point x="240" y="339" type="line" smooth="yes"/>
      <point x="237" y="342"/>
      <point x="237" y="346"/>
      <point x="240" y="349" type="curve" smooth="yes"/>
      <point x="284" y="406" type="line"/>
      <point x="296" y="396" type="line"/>
      <point x="252" y="339" type="line" smooth="yes"/>
      <point x="250" y="336"/>
      <point x="250" y="352"/>
      <point x="252" y="349" type="curve" smooth="yes"/>
      <point x="296" y="291" type="line"/>
    </contour>
    <contour>
      <point x="15" y="-122" type="line"/>
      <point x="59" y="-67" type="line" smooth="yes"/>
      <point x="61" y="-65"/>
      <point x="59" y="-78"/>
      <point x="58" y="-75" type="curve" smooth="yes"/>
      <point x="14" y="16" type="line"/>
      <point x="28" y="22" type="line"/>
      <point x="72" y="-69" type="line" smooth="yes"/>
      <point x="74" y="-71"/>
      <point x="73" y="-75"/>
      <point x="71" y="-77" type="curve" smooth="yes"/>
      <point x="27" y="-132" type="line"/>
    </contour>
    <contour>
      <point x="14" y="671" type="line"/>
      <point x="58" y="762" type="line" smooth="yes"/>
      <point x="59" y="765"/>
      <point x="61" y="752"/>
      <point x="59" y="754" type="curve" smooth="yes"/>
      <point x="15" y="809" type="line"/>
      <point x="27" y="819" type="line"/>
      <point x="71" y="764" type="line" smooth="yes"/>
      <point x="73" y="762"/>
      <point x="74" y="758"/>
      <point x="72" y="756" type="curve" smooth="yes"/>
      <point x="28" y="665" type="line"/>
    </contour>
  </outline>
</glyph>
<glyph name="exclamdown" format="2">
  <advance width="205"/>
  <unicode hex="00A1"/>
  <outline>
    <contour>
      <point x="152" y="514" type="line"/>
      <point x="96" y="594" type="line" smooth="yes"/>
      <point x="96" y="594"/>
      <point x="96" y="594"/>
      <point x="96" y="594" type="curve" smooth="yes"/>
      <point x="39" y="675" type="line"/>
      <point x="53" y="685" type="line"/>
      <point x="110" y="604" type="line" smooth="yes"/>
      <point x="110" y="604"/>
      <point x="110" y="604"/>
      <point x="110" y="604" type="curve" smooth="yes"/>
      <point x="166" y="524" type="line"/>
    </contour>
    <contour>
      <point x="166" y="675" type="line"/>
      <point x="110" y="594" type="line" smooth="yes"/>
      <point x="110" y="594"/>
      <point x="110" y="594"/>
      <point x="110" y="594" type="curve" smooth="yes"/>
      <point x="53" y="514" type="line"/>
      <point x="39" y="524" type="line"/>
      <point x="96" y="604" type="line" smooth="yes"/>
      <point x="97" y="604"/>
      <point x="96" y="604"/>
      <point x="96" y="604" type="curve" smooth="yes"/>
      <point x="152" y="685" type="line"/>
    </contour>
    <contour>
      <point x="111" y="377" type="line"/>
      <point x="111" y="62" type="line"/>
      <point x="95" y="62" type="line"/>
      <point x="95" y="377" type="line"/>
    </contour>
    <contour>
      <point x="71" y="428" type="line"/>
      <point x="109" y="382" type="line" smooth="yes"/>
      <point x="112" y="378"/>
      <point x="94" y="378"/>
      <point x="97" y="382" type="curve" smooth="yes"/>
      <point x="134" y="428" type="line"/>
      <point x="146" y="418" type="line"/>
      <point x="109" y="372" type="line" smooth="yes"/>
      <point x="106" y="368"/>
      <point x="100" y="368"/>
      <point x="97" y="372" type="curve" smooth="yes"/>
      <point x="59" y="418" type="line"/>
    </contour>
    <contour>
      <point x="164" y="-6" type="line"/>
      <point x="98" y="56" type="line" smooth="yes"/>
      <point x="94" y="59"/>
      <point x="112" y="59"/>
      <point x="108" y="56" type="curve" smooth="yes"/>
      <point x="41" y="-6" type="line"/>
      <point x="31" y="6" type="line"/>
      <point x="98" y="68" type="line" smooth="yes"/>
      <point x="101" y="71"/>
      <point x="105" y="71"/>
      <point x="108" y="68" type="curve" smooth="yes"/>
      <point x="174" y="6" type="line"/>
    </contour>
  </outline>
</glyph>
<glyph name="cent" format="2">
  <advance width="331"/>
  <unicode hex="00A2"/>
  <outline>
    <contour>
      <point x="199" y="623" type="line"/>
      <point x="194" y="509" type="line"/>
      <point x="178" y="509" type="line"/>
      <point x="183" y="623" type="line"/>
    </contour>
    <contour>
      <point x="249" y="492" type="line"/>
      <point x="228" y="501"/>
      <point x="206" y="504"/>
      <point x="187" y="501" type="curve" smooth="yes"/>
      <point x="187" y="501"/>
      <point x="187" y="501"/>
      <point x="187" y="501" type="curve" smooth="yes"/>
      <point x="121" y="490"/>
      <point x="79" y="418"/>
      <point x="79" y="313" type="curve"/>
      <point x="79" y="313"/>
      <point x="79" y="313"/>
      <point x="79" y="313" type="curve"/>
      <point x="79" y="216"/>
      <point x="115" y="147"/>
      <point x="173" y="129" type="curve" smooth="yes"/>
      <point x="173" y="129"/>
      <point x="173" y="129"/>
      <point x="173" y="129" type="curve" smooth="yes"/>
      <point x="197" y="121"/>
      <point x="225" y="123"/>
      <point x="249" y="134" type="curve"/>
      <point x="255" y="120" type="line"/>
      <point x="227" y="107"/>
      <point x="195" y="105"/>
      <point x="169" y="113" type="curve" smooth="yes"/>
      <point x="169" y="113"/>
      <point x="169" y="113"/>
      <point x="169" y="113" type="curve" smooth="yes"/>
      <point x="105" y="133"/>
      <point x="63" y="206"/>
      <point x="63" y="313" type="curve"/>
      <point x="63" y="313"/>
      <point x="63" y="313"/>
      <point x="63" y="313" type="curve"/>
      <point x="63" y="428"/>
      <point x="111" y="504"/>
      <point x="185" y="517" type="curve" smooth="yes"/>
      <point x="185" y="517"/>
      <point x="185" y="517"/>
      <point x="185" y="517" type="curve" smooth="yes"/>
      <point x="206" y="520"/>
      <point x="232" y="517"/>
      <point x="255" y="506" type="curve"/>
    </contour>
    <contour>
      <point x="179" y="121" type="line"/>
      <point x="174" y="7" type="line"/>
      <point x="158" y="7" type="line"/>
      <point x="163" y="121" type="line"/>
    </contour>
    <contour>
      <point x="302" y="536" type="line"/>
      <point x="258" y="493" type="line" smooth="yes"/>
      <point x="255" y="491"/>
      <point x="258" y="505"/>
      <point x="259" y="502" type="curve" smooth="yes"/>
      <point x="303" y="403" type="line"/>
      <point x="289" y="397" type="line"/>
      <point x="245" y="496" type="line" smooth="yes"/>
      <point x="243" y="499"/>
      <point x="244" y="502"/>
      <point x="246" y="505" type="curve" smooth="yes"/>
      <point x="290" y="548" type="line"/>
    </contour>
    <contour>
      <point x="303" y="223" type="line"/>
      <point x="259" y="124" type="line" smooth="yes"/>
      <point x="258" y="121"/>
      <point x="255" y="135"/>
      <point x="258" y="133" type="curve" smooth="yes"/>
      <point x="302" y="90" type="line"/>
      <point x="290" y="78" type="line"/>
      <point x="246" y="121" type="line" smooth="yes"/>
      <point x="244" y="124"/>
      <point x="243" y="127"/>
      <point x="245" y="130" type="curve" smooth="yes"/>
      <point x="289" y="229" type="line"/>
    </contour>
    <contour>
      <point x="155" y="685" type="line"/>
      <point x="197" y="628" type="line" smooth="yes"/>
      <point x="201" y="624"/>
      <point x="181" y="624"/>
      <point x="185" y="628" type="curve" smooth="yes"/>
      <point x="231" y="685" type="line"/>
      <point x="243" y="675" type="line"/>
      <point x="197" y="618" type="line" smooth="yes"/>
      <point x="194" y="614"/>
      <point x="188" y="614"/>
      <point x="185" y="618" type="curve" smooth="yes"/>
      <point x="143" y="675" type="line"/>
    </contour>
    <contour>
      <point x="149" y="561" type="line"/>
      <point x="192" y="514" type="line" smooth="yes"/>
      <point x="195" y="511"/>
      <point x="177" y="510"/>
      <point x="180" y="514" type="curve" smooth="yes"/>
      <point x="226" y="570" type="line"/>
      <point x="238" y="560" type="line"/>
      <point x="192" y="504" type="line" smooth="yes"/>
      <point x="189" y="500"/>
      <point x="183" y="500"/>
      <point x="180" y="504" type="curve" smooth="yes"/>
      <point x="137" y="551" type="line"/>
    </contour>
    <contour>
      <point x="202" y="-55" type="line"/>
      <point x="160" y="2" type="line" smooth="yes"/>
      <point x="156" y="6"/>
      <point x="175" y="6"/>
      <point x="172" y="2" type="curve" smooth="yes"/>
      <point x="125" y="-55" type="line"/>
      <point x="113" y="-45" type="line"/>
      <point x="160" y="12" type="line" smooth="yes"/>
      <point x="163" y="16"/>
      <point x="169" y="16"/>
      <point x="172" y="12" type="curve" smooth="yes"/>
      <point x="214" y="-45" type="line"/>
    </contour>
    <contour>
      <point x="206" y="55" type="line"/>
      <point x="164" y="117" type="line" smooth="yes"/>
      <point x="162" y="121"/>
      <point x="180" y="118"/>
      <point x="176" y="115" type="curve" smooth="yes"/>
      <point x="130" y="74" type="line"/>
      <point x="120" y="86" type="line"/>
      <point x="166" y="127" type="line" smooth="yes"/>
      <point x="169" y="130"/>
      <point x="175" y="129"/>
      <point x="178" y="125" type="curve" smooth="yes"/>
      <point x="220" y="63" type="line"/>
    </contour>
  </outline>
</glyph>
<glyph name="yen" format="2">
  <advance width="447"/>
  <unicode hex="00A5"/>
  <outline>
    <contour>
      <point x="217" y="62" type="line"/>
      <point x="217" y="290" type="line"/>
      <point x="217" y="290"/>
      <point x="217" y="290"/>
      <point x="217" y="290" type="curve"/>
      <point x="217" y="427" type="line"/>
      <point x="233" y="427" type="line"/>
      <point x="233" y="290" type="line"/>
      <point x="233" y="290"/>
      <point x="233" y="290"/>
      <point x="233" y="290" type="curve"/>
      <point x="233" y="62" type="line"/>
    </contour>
    <contour>
      <point x="106" y="621" type="line"/>
      <point x="221" y="321" type="line" smooth="yes"/>
      <point x="221" y="321"/>
      <point x="221" y="321"/>
      <point x="221" y="321" type="curve" smooth="yes"/>
      <point x="232" y="293" type="line" smooth="yes"/>
      <point x="235" y="286"/>
      <point x="215" y="286"/>
      <point x="217" y="293" type="curve" smooth="yes"/>
      <point x="227" y="321" type="line" smooth="yes"/>
      <point x="227" y="321"/>
      <point x="228" y="321"/>
      <point x="228" y="321" type="curve" smooth="yes"/>
      <point x="343" y="621" type="line"/>
      <point x="357" y="615" type="line"/>
      <point x="242" y="315" type="line" smooth="yes"/>
      <point x="242" y="315"/>
      <point x="243" y="315"/>
      <point x="243" y="315" type="curve" smooth="yes"/>
      <point x="233" y="287" type="line" smooth="yes"/>
      <point x="230" y="280"/>
      <point x="220" y="280"/>
      <point x="218" y="287" type="curve" smooth="yes"/>
      <point x="207" y="315" type="line" smooth="yes"/>
      <point x="207" y="315"/>
      <point x="207" y="315"/>
      <point x="207" y="315" type="curve" smooth="yes"/>
      <point x="92" y="615" type="line"/>
    </contour>
    <contour>
      <point x="357" y="150" type="line"/>
      <point x="92" y="150" type="line"/>
      <point x="92" y="166" type="line"/>
      <point x="357" y="166" type="line"/>
    </contour>
    <contour>
      <point x="289" y="-6" type="line"/>
      <point x="220" y="56" type="line" smooth="yes"/>
      <point x="217" y="59"/>
      <point x="233" y="59"/>
      <point x="230" y="56" type="curve" smooth="yes"/>
      <point x="160" y="-6" type="line"/>
      <point x="150" y="6" type="line"/>
      <point x="220" y="68" type="line" smooth="yes"/>
      <point x="223" y="71"/>
      <point x="227" y="71"/>
      <point x="230" y="68" type="curve" smooth="yes"/>
      <point x="299" y="6" type="line"/>
    </contour>
    <contour>
      <point x="11" y="687" type="line"/>
      <point x="103" y="625" type="line" smooth="yes"/>
      <point x="107" y="622"/>
      <point x="90" y="621"/>
      <point x="93" y="623" type="curve" smooth="yes"/>
      <point x="151" y="685" type="line"/>
      <point x="163" y="675" type="line"/>
      <point x="105" y="613" type="line" smooth="yes"/>
      <point x="102" y="610"/>
      <point x="98" y="609"/>
      <point x="95" y="611" type="curve" smooth="yes"/>
      <point x="3" y="673" type="line"/>
    </contour>
    <contour>
      <point x="301" y="685" type="line"/>
      <point x="356" y="623" type="line" smooth="yes"/>
      <point x="359" y="620"/>
      <point x="342" y="622"/>
      <point x="345" y="625" type="curve" smooth="yes"/>
      <point x="435" y="687" type="line"/>
      <point x="445" y="673" type="line"/>
      <point x="355" y="611" type="line" smooth="yes"/>
      <point x="351" y="609"/>
      <point x="347" y="610"/>
      <point x="344" y="613" type="curve" smooth="yes"/>
      <point x="289" y="675" type="line"/>
    </contour>
    <contour>
      <point x="401" y="366" type="line"/>
      <point x="364" y="313" type="line" smooth="yes"/>
      <point x="362" y="311"/>
      <point x="362" y="325"/>
      <point x="364" y="323" type="curve" smooth="yes"/>
      <point x="401" y="271" type="line"/>
      <point x="387" y="261" type="line"/>
      <point x="350" y="313" type="line" smooth="yes"/>
      <point x="349" y="316"/>
      <point x="349" y="320"/>
      <point x="350" y="323" type="curve" smooth="yes"/>
      <point x="387" y="376" type="line"/>
    </contour>
    <contour>
      <point x="401" y="206" type="line"/>
      <point x="364" y="153" type="line" smooth="yes"/>
      <point x="362" y="151"/>
      <point x="362" y="165"/>
      <point x="364" y="163" type="curve" smooth="yes"/>
      <point x="401" y="111" type="line"/>
      <point x="387" y="101" type="line"/>
      <point x="350" y="153" type="line" smooth="yes"/>
      <point x="349" y="156"/>
      <point x="349" y="160"/>
      <point x="350" y="163" type="curve" smooth="yes"/>
      <point x="387" y="216" type="line"/>
    </contour>
    <contour>
      <point x="48" y="271" type="line"/>
      <point x="85" y="323" type="line" smooth="yes"/>
      <point x="87" y="325"/>
      <point x="87" y="311"/>
      <point x="85" y="313" type="curve" smooth="yes"/>
      <point x="48" y="366" type="line"/>
      <point x="62" y="376" type="line"/>
      <point x="99" y="323" type="line" smooth="yes"/>
      <point x="100" y="320"/>
      <point x="100" y="316"/>
      <point x="99" y="313" type="curve" smooth="yes"/>
      <point x="62" y="261" type="line"/>
    </contour>
    <contour>
      <point x="48" y="111" type="line"/>
      <point x="85" y="163" type="line" smooth="yes"/>
      <point x="87" y="165"/>
      <point x="87" y="151"/>
      <point x="85" y="153" type="curve" smooth="yes"/>
      <point x="48" y="206" type="line"/>
      <point x="62" y="216" type="line"/>
      <point x="99" y="163" type="line" smooth="yes"/>
      <point x="100" y="160"/>
      <point x="100" y="156"/>
      <point x="99" y="153" type="curve" smooth="yes"/>
      <point x="62" y="101" type="line"/>
    </contour>
    <contour>
      <point x="214" y="310" type="line"/>
      <point x="92" y="310" type="line"/>
      <point x="92" y="326" type="line"/>
      <point x="214" y="326" type="line"/>
    </contour>
    <contour>
      <point x="357" y="310" type="line"/>
      <point x="235" y="310" type="line"/>
      <point x="235" y="326" type="line"/>
      <point x="357" y="326" type="line"/>
    </contour>
    <contour>
      <point x="147" y="377" type="line"/>
      <point x="219" y="324" type="line" smooth="yes"/>
      <point x="222" y="322"/>
      <point x="223" y="317"/>
      <point x="220" y="313" type="curve" smooth="yes"/>
      <point x="180" y="261" type="line"/>
      <point x="168" y="271" type="line"/>
      <point x="208" y="323" type="line" smooth="yes"/>
      <point x="210" y="326"/>
      <point x="213" y="309"/>
      <point x="209" y="312" type="curve" smooth="yes"/>
      <point x="137" y="365" type="line"/>
    </contour>
    <contour>
      <point x="269" y="261" type="line"/>
      <point x="229" y="313" type="line" smooth="yes"/>
      <point x="226" y="317"/>
      <point x="227" y="322"/>
      <point x="230" y="324" type="curve" smooth="yes"/>
      <point x="301" y="377" type="line"/>
      <point x="311" y="365" type="line"/>
      <point x="240" y="312" type="line" smooth="yes"/>
      <point x="236" y="309"/>
      <point x="239" y="326"/>
      <point x="241" y="323" type="curve" smooth="yes"/>
      <point x="281" y="271" type="line"/>
    </contour>
    <contour>
      <point x="179" y="217" type="line"/>
      <point x="231" y="164" type="line" smooth="yes"/>
      <point x="231" y="164"/>
      <point x="231" y="164"/>
      <point x="231" y="164" type="curve" smooth="yes"/>
      <point x="284" y="112" type="line"/>
      <point x="272" y="100" type="line"/>
      <point x="219" y="152" type="line" smooth="yes"/>
      <point x="219" y="152"/>
      <point x="219" y="152"/>
      <point x="219" y="152" type="curve" smooth="yes"/>
      <point x="167" y="205" type="line"/>
    </contour>
    <contour>
      <point x="165" y="112" type="line"/>
      <point x="220" y="164" type="line" smooth="yes"/>
      <point x="220" y="164"/>
      <point x="219" y="163"/>
      <point x="219" y="163" type="curve" smooth="yes"/>
      <point x="269" y="216" type="line"/>
      <point x="281" y="206" type="line"/>
      <point x="231" y="153" type="line" smooth="yes"/>
      <point x="231" y="152"/>
      <point x="231" y="152"/>
      <point x="230" y="152" type="curve" smooth="yes"/>
      <point x="175" y="100" type="line"/>
    </contour>
  </outline>
</glyph>
<glyph name="brokenbar" format="2">
  <advance width="273"/>
  <unicode hex="00A6"/>
  <outline>
    <contour>
      <point x="144" y="688" type="line"/>
      <point x="144" y="432" type="line"/>
      <point x="128" y="432" type="line"/>
      <point x="128" y="688" type="line"/>
    </contour>
    <contour>
      <point x="128" y="-13" type="line"/>
      <point x="128" y="243" type="line"/>
      <point x="144" y="243" type="line"/>
      <point x="144" y="-13" type="line"/>
    </contour>
    <contour>
      <point x="180" y="-80" type="line"/>
      <point x="130" y="-18" type="line" smooth="yes"/>
      <point x="127" y="-14"/>
      <point x="145" y="-14"/>
      <point x="142" y="-18" type="curve" smooth="yes"/>
      <point x="93" y="-80" type="line"/>
      <point x="81" y="-70" type="line"/>
      <point x="130" y="-8" type="line" smooth="yes"/>
      <point x="133" y="-4"/>
      <point x="139" y="-4"/>
      <point x="142" y="-8" type="curve" smooth="yes"/>
      <point x="192" y="-70" type="line"/>
    </contour>
    <contour>
      <point x="93" y="755" type="line"/>
      <point x="142" y="693" type="line" smooth="yes"/>
      <point x="145" y="689"/>
      <point x="127" y="689"/>
      <point x="130" y="693" type="curve" smooth="yes"/>
      <point x="180" y="755" type="line"/>
      <point x="192" y="745" type="line"/>
      <point x="142" y="683" type="line" smooth="yes"/>
      <point x="139" y="679"/>
      <point x="133" y="679"/>
      <point x="130" y="683" type="curve" smooth="yes"/>
      <point x="81" y="745" type="line"/>
    </contour>
    <contour>
      <point x="180" y="365" type="line"/>
      <point x="130" y="427" type="line" smooth="yes"/>
      <point x="127" y="431"/>
      <point x="145" y="431"/>
      <point x="142" y="427" type="curve" smooth="yes"/>
      <point x="93" y="365" type="line"/>
      <point x="81" y="375" type="line"/>
      <point x="130" y="437" type="line" smooth="yes"/>
      <point x="133" y="441"/>
      <point x="139" y="441"/>
      <point x="142" y="437" type="curve" smooth="yes"/>
      <point x="192" y="375" type="line"/>
    </contour>
    <contour>
      <point x="93" y="310" type="line"/>
      <point x="142" y="248" type="line" smooth="yes"/>
      <point x="145" y="244"/>
      <point x="127" y="244"/>
      <point x="130" y="248" type="curve" smooth="yes"/>
      <point x="180" y="310" type="line"/>
      <point x="192" y="300" type="line"/>
      <point x="142" y="238" type="line" smooth="yes"/>
      <point x="139" y="234"/>
      <point x="133" y="234"/>
      <point x="130" y="238" type="curve" smooth="yes"/>
      <point x="81" y="300" type="line"/>
    </contour>
  </outline>
</glyph>
<glyph name="dieresis" format="2">
  <advance width="409"/>
  <unicode hex="00A8"/>
  <outline>
    <contour>
      <point x="70" y="763" type="line"/>
      <point x="126" y="683" type="line" smooth="yes"/>
      <point x="126" y="683"/>
      <point x="125" y="683"/>
      <point x="126" y="683" type="curve" smooth="yes"/>
      <point x="184" y="602" type="line"/>
      <point x="170" y="592" type="line"/>
      <point x="112" y="673" type="line" smooth="yes"/>
      <point x="112" y="673"/>
      <point x="112" y="673"/>
      <point x="112" y="673" type="curve" smooth="yes"/>
      <point x="56" y="753" type="line"/>
    </contour>
    <contour>
      <point x="56" y="602" type="line"/>
      <point x="112" y="683" type="line" smooth="yes"/>
      <point x="112" y="683"/>
      <point x="112" y="683"/>
      <point x="113" y="683" type="curve" smooth="yes"/>
      <point x="171" y="763" type="line"/>
      <point x="183" y="753" type="line"/>
      <point x="125" y="673" type="line" smooth="yes"/>
      <point x="125" y="673"/>
      <point x="126" y="673"/>
      <point x="126" y="673" type="curve" smooth="yes"/>
      <point x="70" y="592" type="line"/>
    </contour>
    <contour>
      <point x="239" y="763" type="line"/>
      <point x="296" y="683" type="line" smooth="yes"/>
      <point x="296" y="683"/>
      <point x="296" y="683"/>
      <point x="296" y="683" type="curve" smooth="yes"/>
      <point x="353" y="602" type="line"/>
      <point x="339" y="592" type="line"/>
      <point x="282" y="673" type="line" smooth="yes"/>
      <point x="282" y="673"/>
      <point x="282" y="673"/>
      <point x="282" y="673" type="curve" smooth="yes"/>
      <point x="225" y="753" type="line"/>
    </contour>
    <contour>
      <point x="225" y="602" type="line"/>
      <point x="282" y="683" type="line" smooth="yes"/>
      <point x="282" y="683"/>
      <point x="282" y="683"/>
      <point x="282" y="683" type="curve" smooth="yes"/>
      <point x="339" y="763" type="line"/>
      <point x="353" y="753" type="line"/>
      <point x="296" y="673" type="line" smooth="yes"/>
      <point x="296" y="673"/>
      <point x="296" y="673"/>
      <point x="296" y="673" type="curve" smooth="yes"/>
      <point x="239" y="592" type="line"/>
    </contour>
  </outline>
</glyph>
<glyph name="questiondown" format="2">
  <advance width="369"/>
  <unicode hex="00BF"/>
  <outline>
    <contour>
      <point x="255" y="514" type="line"/>
      <point x="198" y="594" type="line" smooth="yes"/>
      <point x="198" y="594"/>
      <point x="198" y="594"/>
      <point x="198" y="594" type="curve" smooth="yes"/>
      <point x="141" y="675" type="line"/>
      <point x="155" y="685" type="line"/>
      <point x="212" y="604" type="line" smooth="yes"/>
      <point x="212" y="604"/>
      <point x="212" y="604"/>
      <point x="212" y="604" type="curve" smooth="yes"/>
      <point x="269" y="524" type="line"/>
    </contour>
    <contour>
      <point x="269" y="675" type="line"/>
      <point x="212" y="594" type="line" smooth="yes"/>
      <point x="212" y="594"/>
      <point x="212" y="594"/>
      <point x="212" y="594" type="curve" smooth="yes"/>
      <point x="155" y="514" type="line"/>
      <point x="141" y="524" type="line"/>
      <point x="198" y="604" type="line" smooth="yes"/>
      <point x="198" y="604"/>
      <point x="198" y="604"/>
      <point x="198" y="604" type="curve" smooth="yes"/>
      <point x="255" y="685" type="line"/>
    </contour>
    <contour>
      <point x="174" y="428" type="line"/>
      <point x="207" y="382" type="line" smooth="yes"/>
      <point x="209" y="378"/>
      <point x="191" y="379"/>
      <point x="194" y="382" type="curve" smooth="yes"/>
      <point x="237" y="428" type="line"/>
      <point x="249" y="418" type="line"/>
      <point x="206" y="372" type="line" smooth="yes"/>
      <point x="202" y="368"/>
      <point x="196" y="368"/>
      <point x="193" y="372" type="curve" smooth="yes"/>
      <point x="160" y="418" type="line"/>
    </contour>
    <contour>
      <point x="208" y="375" type="line"/>
      <point x="183" y="293"/>
      <point x="86" y="274"/>
      <point x="86" y="174" type="curve"/>
      <point x="86" y="174"/>
      <point x="86" y="174"/>
      <point x="86" y="174" type="curve"/>
      <point x="86" y="100"/>
      <point x="133" y="60"/>
      <point x="207" y="60" type="curve"/>
      <point x="207" y="60"/>
      <point x="207" y="60"/>
      <point x="207" y="60" type="curve"/>
      <point x="234" y="60"/>
      <point x="263" y="68"/>
      <point x="291" y="81" type="curve"/>
      <point x="297" y="67" type="line"/>
      <point x="267" y="52"/>
      <point x="236" y="44"/>
      <point x="207" y="44" type="curve"/>
      <point x="207" y="44"/>
      <point x="207" y="44"/>
      <point x="207" y="44" type="curve"/>
      <point x="125" y="44"/>
      <point x="70" y="92"/>
      <point x="70" y="174" type="curve"/>
      <point x="70" y="174"/>
      <point x="70" y="174"/>
      <point x="70" y="174" type="curve"/>
      <point x="70" y="282"/>
      <point x="169" y="303"/>
      <point x="192" y="379" type="curve"/>
    </contour>
    <contour>
      <point x="345" y="183" type="line"/>
      <point x="301" y="71" type="line" smooth="yes"/>
      <point x="300" y="68"/>
      <point x="299" y="81"/>
      <point x="300" y="79" type="curve" smooth="yes"/>
      <point x="344" y="20" type="line"/>
      <point x="332" y="10" type="line"/>
      <point x="288" y="69" type="line" smooth="yes"/>
      <point x="286" y="71"/>
      <point x="286" y="74"/>
      <point x="287" y="77" type="curve" smooth="yes"/>
      <point x="331" y="189" type="line"/>
    </contour>
  </outline>
</glyph>
<glyph name="Eth" format="2">
  <advance width="495"/>
  <unicode hex="00D0"/>
  <outline>
    <contour>
      <point x="125" y="62" type="line" smooth="yes"/>
      <point x="125" y="58"/>
      <point x="113" y="70"/>
      <point x="117" y="70" type="curve" smooth="yes"/>
      <point x="223" y="70" type="line"/>
      <point x="223" y="70"/>
      <point x="223" y="70"/>
      <point x="223" y="70" type="curve"/>
      <point x="333" y="70"/>
      <point x="407" y="177"/>
      <point x="407" y="341" type="curve"/>
      <point x="407" y="341"/>
      <point x="407" y="341"/>
      <point x="407" y="341" type="curve"/>
      <point x="407" y="504"/>
      <point x="333" y="610"/>
      <point x="223" y="610" type="curve"/>
      <point x="223" y="610"/>
      <point x="223" y="610"/>
      <point x="223" y="610" type="curve"/>
      <point x="117" y="610" type="line" smooth="yes"/>
      <point x="113" y="610"/>
      <point x="125" y="622"/>
      <point x="125" y="618" type="curve" smooth="yes"/>
    </contour>
    <contour>
      <point x="176" y="120" type="line"/>
      <point x="123" y="57" type="line" smooth="yes"/>
      <point x="123" y="57"/>
      <point x="123" y="56"/>
      <point x="122" y="56" type="curve" smooth="yes"/>
      <point x="52" y="-6" type="line"/>
      <point x="42" y="6" type="line"/>
      <point x="112" y="68" type="line" smooth="yes"/>
      <point x="112" y="68"/>
      <point x="111" y="67"/>
      <point x="111" y="67" type="curve" smooth="yes"/>
      <point x="164" y="130" type="line"/>
    </contour>
    <contour>
      <point x="52" y="686" type="line"/>
      <point x="122" y="624" type="line" smooth="yes"/>
      <point x="123" y="624"/>
      <point x="123" y="623"/>
      <point x="123" y="623" type="curve" smooth="yes"/>
      <point x="176" y="560" type="line"/>
      <point x="164" y="550" type="line"/>
      <point x="111" y="613" type="line" smooth="yes"/>
      <point x="111" y="613"/>
      <point x="112" y="612"/>
      <point x="112" y="612" type="curve" smooth="yes"/>
      <point x="42" y="674" type="line"/>
    </contour>
    <contour>
      <point x="109" y="62" type="curve" smooth="yes"/>
      <point x="109" y="618" type="line" smooth="yes"/>
      <point x="109" y="622"/>
      <point x="113" y="626"/>
      <point x="117" y="626" type="curve" smooth="yes"/>
      <point x="223" y="626" type="line"/>
      <point x="223" y="626"/>
      <point x="223" y="626"/>
      <point x="223" y="626" type="curve"/>
      <point x="341" y="626"/>
      <point x="423" y="514"/>
      <point x="423" y="341" type="curve"/>
      <point x="423" y="341"/>
      <point x="423" y="341"/>
      <point x="423" y="341" type="curve"/>
      <point x="423" y="167"/>
      <point x="341" y="54"/>
      <point x="223" y="54" type="curve"/>
      <point x="223" y="54"/>
      <point x="223" y="54"/>
      <point x="223" y="54" type="curve"/>
      <point x="117" y="54" type="line" smooth="yes"/>
      <point x="113" y="54"/>
      <point x="109" y="58"/>
    </contour>
    <contour>
      <point x="214" y="332" type="line"/>
      <point x="61" y="332" type="line"/>
      <point x="61" y="348" type="line"/>
      <point x="214" y="348" type="line"/>
    </contour>
    <contour>
      <point x="10" y="282" type="line"/>
      <point x="54" y="345" type="line" smooth="yes"/>
      <point x="56" y="347"/>
      <point x="56" y="333"/>
      <point x="54" y="335" type="curve" smooth="yes"/>
      <point x="10" y="399" type="line"/>
      <point x="24" y="409" type="line"/>
      <point x="68" y="345" type="line" smooth="yes"/>
      <point x="69" y="342"/>
      <point x="69" y="338"/>
      <point x="68" y="335" type="curve" smooth="yes"/>
      <point x="24" y="272" type="line"/>
    </contour>
    <contour>
      <point x="265" y="399" type="line"/>
      <point x="221" y="335" type="line" smooth="yes"/>
      <point x="219" y="333"/>
      <point x="219" y="347"/>
      <point x="221" y="345" type="curve" smooth="yes"/>
      <point x="265" y="282" type="line"/>
      <point x="251" y="272" type="line"/>
      <point x="207" y="335" type="line" smooth="yes"/>
      <point x="206" y="338"/>
      <point x="206" y="342"/>
      <point x="207" y="345" type="curve" smooth="yes"/>
      <point x="251" y="409" type="line"/>
    </contour>
    <contour>
      <point x="173" y="399" type="line"/>
      <point x="123" y="335" type="line" smooth="yes"/>
      <point x="123" y="335"/>
      <point x="123" y="335"/>
      <point x="123" y="335" type="curve" smooth="yes"/>
      <point x="72" y="272" type="line"/>
      <point x="60" y="282" type="line"/>
      <point x="111" y="345" type="line" smooth="yes"/>
      <point x="111" y="345"/>
      <point x="111" y="345"/>
      <point x="111" y="345" type="curve" smooth="yes"/>
      <point x="161" y="409" type="line"/>
    </contour>
    <contour>
      <point x="72" y="409" type="line"/>
      <point x="123" y="345" type="line" smooth="yes"/>
      <point x="123" y="345"/>
      <point x="123" y="345"/>
      <point x="123" y="345" type="curve" smooth="yes"/>
      <point x="173" y="282" type="line"/>
      <point x="161" y="272" type="line"/>
      <point x="111" y="335" type="line" smooth="yes"/>
      <point x="111" y="335"/>
      <point x="111" y="335"/>
      <point x="111" y="335" type="curve" smooth="yes"/>
      <point x="60" y="399" type="line"/>
    </contour>
  </outline>
</glyph>
<glyph name="endash" format="2">
  <advance width="393"/>
  <unicode hex="2013"/>
  <outline>
    <contour>
      <point x="303" y="310" type="line"/>
      <point x="90" y="310" type="line"/>
      <point x="90" y="326" type="line"/>
      <point x="303" y="326" type="line"/>
    </contour>
    <contour>
      <point x="39" y="261" type="line"/>
      <point x="83" y="323" type="line" smooth="yes"/>
      <point x="85" y="325"/>
      <point x="85" y="311"/>
      <point x="83" y="313" type="curve" smooth="yes"/>
      <point x="39" y="376" type="line"/>
      <point x="53" y="386" type="line"/>
      <point x="97" y="323" type="line" smooth="yes"/>
      <point x="98" y="320"/>
      <point x="98" y="316"/>
      <point x="97" y="313" type="curve" smooth="yes"/>
      <point x="53" y="251" type="line"/>
    </contour>
    <contour>
      <point x="354" y="376" type="line"/>
      <point x="310" y="313" type="line" smooth="yes"/>
      <point x="308" y="311"/>
      <point x="308" y="325"/>
      <point x="310" y="323" type="curve" smooth="yes"/>
      <point x="354" y="261" type="line"/>
      <point x="340" y="251" type="line"/>
      <point x="296" y="313" type="line" smooth="yes"/>
      <point x="295" y="316"/>
      <point x="295" y="320"/>
      <point x="296" y="323" type="curve" smooth="yes"/>
      <point x="340" y="386" type="line"/>
    </contour>
  </outline>
</glyph>
<glyph name="bullet" format="2">
  <advance width="402"/>
  <unicode hex="2022"/>
  <outline>
    <contour>
      <point x="91" y="478" type="line"/>
      <point x="208" y="312" type="line"/>
      <point x="208" y="312"/>
      <point x="208" y="312"/>
      <point x="208" y="312" type="curve"/>
      <point x="325" y="146" type="line"/>
      <point x="311" y="136" type="line"/>
      <point x="194" y="302" type="line"/>
      <point x="194" y="302"/>
      <point x="194" y="302"/>
      <point x="194" y="302" type="curve"/>
      <point x="77" y="468" type="line"/>
    </contour>
    <contour>
      <point x="77" y="146" type="line"/>
      <point x="194" y="312" type="line"/>
      <point x="194" y="312"/>
      <point x="194" y="312"/>
      <point x="194" y="312" type="curve"/>
      <point x="311" y="478" type="line"/>
      <point x="325" y="468" type="line"/>
      <point x="208" y="302" type="line"/>
      <point x="208" y="302"/>
      <point x="208" y="302"/>
      <point x="208" y="302" type="curve"/>
      <point x="91" y="136" type="line"/>
    </contour>
  </outline>
</glyph>
<glyph name="minus" format="2">
  <advance width="346"/>
  <unicode hex="2212"/>
  <outline>
    <contour>
      <point x="274" y="302" type="line"/>
      <point x="72" y="302" type="line"/>
      <point x="72" y="318" type="line"/>
      <point x="274" y="318" type="line"/>
    </contour>
    <contour>
      <point x="21" y="252" type="line"/>
      <point x="65" y="315" type="line" smooth="yes"/>
      <point x="67" y="317"/>
      <point x="67" y="303"/>
      <point x="65" y="305" type="curve" smooth="yes"/>
      <point x="21" y="369" type="line"/>
      <point x="35" y="379" type="line"/>
      <point x="79" y="315" type="line" smooth="yes"/>
      <point x="80" y="312"/>
      <point x="80" y="308"/>
      <point x="79" y="305" type="curve" smooth="yes"/>
      <point x="35" y="242" type="line"/>
    </contour>
    <contour>
      <point x="325" y="369" type="line"/>
      <point x="281" y="305" type="line" smooth="yes"/>
      <point x="279" y="303"/>
      <point x="279" y="317"/>
      <point x="281" y="315" type="curve" smooth="yes"/>
      <point x="325" y="252" type="line"/>
      <point x="311" y="242" type="line"/>
      <point x="267" y="305" type="line" smooth="yes"/>
      <point x="266" y="308"/>
      <point x="266" y="312"/>
      <point x="267" y="315" type="curve" smooth="yes"/>
      <point x="311" y="379" type="line"/>
    </contour>
  </outline>
</glyph>
